IKResults
version=1
nRows=5
nColumns=63
inDegrees=yes

Units are S.I. units (second, meters, Newtons, ...)
If the header above contains a line with 'inDegrees', this indicates whether rotational values are in degrees (yes) or radians (no).

endheader
time	pelvis_tilt	pelvis_list	pelvis_rotation	pelvis_tx	pelvis_ty	pelvis_tz	hip_flexion_r	hip_adduction_r	hip_rotation_r	knee_angle_r	knee_angle_r_beta	ankle_angle_r	subtalar_angle_r	mtp_angle_r	hip_flexion_l	hip_adduction_l	hip_rotation_l	knee_angle_l	knee_angle_l_beta	ankle_angle_l	subtalar_angle_l	mtp_angle_l	L5_S1_Flex_Ext	L5_S1_Lat_Bending	L5_S1_axial_rotation	L4_L5_Flex_Ext	L4_L5_Lat_Bending	L4_L5_axial_rotation	L3_L4_Flex_Ext	L3_L4_Lat_Bending	L3_L4_axial_rotation	L2_L3_Flex_Ext	L2_L3_Lat_Bending	L2_L3_axial_rotation	L1_L2_Flex_Ext	L1_L2_Lat_Bending	L1_L2_axial_rotation	L1_T12_Flex_Ext	L1_T12_Lat_Bending	L1_T12_axial_rotation	Abs_r3	Abs_r2	Abs_r1	Abs_t1	Abs_t2	neck_flexion	neck_bending	neck_rotation	arm_flex_r	arm_add_r	arm_rot_r	elbow_flex_r	pro_sup_r	wrist_flex_r	wrist_dev_r	arm_flex_l	arm_add_l	arm_rot_l	elbow_flex_l	pro_sup_l	wrist_flex_l	wrist_dev_l
      2.03333333	     15.66769839	      1.30977887	     10.12523613	     -0.66294813	      0.94755241	      0.09547760	    -21.29518376	     -0.14724326	     20.92565279	     16.88525634	      0.29470332	     16.74343912	      2.03808493	      0.00000000	    -11.68750538	     -4.75200205	    -37.13791072	     54.55767835	      0.95221112	     25.94634388	    -19.58251163	      0.00000000	     -7.34400628	     -0.56302236	      3.07173030	    -13.63855407	     -0.74881974	      3.26371344	    -12.06546792	     -1.36893257	      3.26371344	     -8.39346478	     -1.36893257	      2.68776401	     -6.81964423	     -1.14811520	      2.49578087	     -4.19636519	     -0.87212164	      2.30379772	    -52.45750248	     -6.36902155	     17.08404240	      0.00000000	      0.00000000	     13.39333625	     -9.13138813	     21.63384253	      2.49591675	     -5.96487689	    -15.51235365	     21.63148479	     89.99559364	      0.00000000	      0.00000000	      1.39535423	     -6.20645858	    -19.94927765	     50.07461413	     89.99559364	      0.00000000	      0.00000000
      2.06666667	     18.70941713	     -1.53471662	      3.21413251	     -0.66739509	      0.94996766	      0.07697389	    -24.56629899	     -1.37804939	     31.01698067	     15.79408491	      0.27565878	      5.67730719	      6.61278677	      0.00000000	    -11.66498106	     -6.30324653	    -39.60830391	     55.45950832	      0.96795102	     28.35178477	    -19.71481072	      0.00000000	     -8.06282742	     -0.49923727	      3.77882079	    -14.97347681	     -0.66398556	      4.01499709	    -13.24641917	     -1.21384549	      4.01499709	     -9.21500546	     -1.21384549	      3.30646819	     -7.48714155	     -1.01804463	      3.07029189	     -4.60709959	     -0.77331853	      2.83411559	    -57.59197001	     -5.64747181	     21.01666759	      0.00000000	      0.00000000	     15.82671219	    -14.26065485	     34.39261062	      1.47320909	     -5.44708078	    -18.49417955	     20.77022400	     89.99559364	      0.00000000	      0.00000000	      1.28084383	      2.40712444	    -27.73056974	     59.94454092	     89.99559364	      0.00000000	      0.00000000
      2.10000000	     22.61319313	     -6.51987511	     -2.94291564	     -0.67557994	      0.95322299	      0.05282680	    -28.27359935	     -1.87400096	     38.84663564	     13.62640839	      0.23782569	    -11.74077946	     17.23047560	      0.00000000	    -11.24305312	    -10.09654845	    -39.80741446	     57.67742263	      1.00666093	     33.24688289	    -19.79438299	      0.00000000	     -8.91483678	     -0.28457835	      4.57489998	    -16.55574339	     -0.37848921	      4.86083123	    -14.64618535	     -0.69192381	      4.86083123	    -10.18876696	     -0.69192381	      4.00303748	     -8.27831744	     -0.58031218	      3.71710623	     -5.09393774	     -0.44081187	      3.43117498	    -63.67778766	     -3.21920724	     25.44422121	      0.00000000	      0.00000000	     18.77539523	    -19.26396897	     42.57024582	      0.19819926	     -6.34586392	    -20.32370739	     19.77376507	     89.99559364	      0.00000000	      0.00000000	      2.75106581	     14.91278594	    -37.35039612	     71.74258584	     89.99559364	      0.00000000	      0.00000000
      2.13333333	     26.92894989	    -11.83243009	     -7.40200759	     -0.68361062	      0.95659930	      0.02752983	    -32.47028294	     -1.80149334	     39.72687157	     11.02506497	      0.19242368	    -36.67870462	     19.72631662	      0.00000000	    -11.55843149	    -15.52701216	    -39.83519009	     59.87034330	      1.04493461	     38.81476402	    -19.82799307	      0.00000000	     -9.82733817	     -0.11066594	      5.42019198	    -18.25034972	     -0.14718571	      5.75895397	    -16.14533388	     -0.26907318	      5.75895397	    -11.23166480	     -0.26907318	      4.74266798	     -9.12566623	     -0.22566999	      4.40390598	     -5.61534103	     -0.17142155	      4.06514398	    -70.19569383	     -1.25187530	     30.14548171	      0.00000000	      0.00000000	     21.26954355	    -22.96045730	     43.95421687	     -1.14023201	     -7.46764783	    -21.16832734	     18.77079506	     89.99559364	      0.00000000	      0.00000000	      7.17097783	     29.02148700	    -48.58813685	     83.43733428	     89.99559364	      0.00000000	      0.00000000
      2.16666667	     30.67888232	    -17.64205519	    -13.43780705	     -0.68815887	      0.95833050	      0.00496379	    -35.82883668	     -3.10792870	     39.61530002	      7.76475051	      0.13552046	    -62.85684496	     19.83598989	      0.00000000	    -13.52210591	    -20.64447385	    -39.87799794	     60.58499953	      1.05740772	     43.68984265	    -19.85577161	      0.00000000	    -10.64189761	     -0.17844497	      6.62310447	    -19.76306805	     -0.23733181	      7.03704850	    -17.48357358	     -0.43387110	      7.03704850	    -12.16262478	     -0.43387110	      5.79521641	     -9.88206612	     -0.36388498	      5.38127238	     -6.08078029	     -0.27641126	      4.96732835	    -76.01401044	     -2.01860519	     36.83572014	      0.00000000	      0.00000000	     23.03659025	    -25.45381142	     44.22781543	     -2.12986465	     -8.97562434	    -20.74464577	     18.14978138	     89.99559364	      0.00000000	      0.00000000	     11.20298270	     40.07407942	    -56.89049746	     92.87615165	     89.99559364	      0.00000000	      0.00000000
